<?xml version="1.0" encoding="utf-8"?>
<!-- Generator: Adobe Illustrator 23.0.2, SVG Export Plug-In . SVG Version: 6.00 Build 0)  -->
<svg version="1.1" id="Layer_1" xmlns="http://www.w3.org/2000/svg" xmlns:xlink="http://www.w3.org/1999/xlink" x="0px" y="0px"
	 viewBox="0 0 80 80" style="enable-background:new 0 0 80 80;" xml:space="preserve">
<style type="text/css">
	.st0{fill:#FBB020;}
	.st1{fill:#FFFFFF;}
</style>
<g>
	<circle class="st0" cx="40" cy="40" r="40"/>
	<path class="st1" d="M51.3,31.6c0,0,6.1-2.5,0.6-7.8h-5.2c0,0-2.8-0.1-2.9-2.7l-0.2-2.7c0,0-4.1-6.6-7.9,0v2.8c0,0,0.2,2.5-3.3,2.8
		c0,0-10.4-0.6-11.3,10.5c0,0-0.1,9,8.1,9.9l19.4-0.2c0,0,4.8,2.5,0,4.8H28.6c0,0-7.2,3.2-0.2,7.6h6.2c0,0,1.7,0.8,1,2.8l-0.1,3.9
		c0,0,4.2,5,8.1,0l0.4-4.4c0,0,0.3-2.8,3.1-2.2c2.8,0.6,8.8-1,11.1-7.5c0,0,2.3-10-6.9-12.4l-20.3-0.2c0,0-3.6-2-0.6-4.7L51.3,31.6z
		"/>
</g>
</svg>
