<svg width="24" height="16" viewBox="0 0 24 16" fill="none" xmlns="http://www.w3.org/2000/svg">
<path d="M14.4342 8.17069C14.4342 9.56355 14.1429 10.8057 13.5603 11.8973C12.9777 12.9821 12.1473 13.8292 11.0692 14.4385C9.99107 15.0546 8.75558 15.3627 7.36272 15.3627C6.36496 15.3627 5.41071 15.1685 4.5 14.7801C3.58929 14.3917 2.8058 13.8694 2.14955 13.2131C1.4933 12.5569 0.970982 11.7734 0.582589 10.8627C0.194196 9.95194 0 8.9977 0 7.99993C0 7.00216 0.194196 6.04792 0.582589 5.13721C0.970982 4.22649 1.4933 3.44301 2.14955 2.78676C2.8058 2.13051 3.58929 1.60819 4.5 1.2198C5.41071 0.831404 6.36496 0.637207 7.36272 0.637207C9.2779 0.637207 10.9219 1.28006 12.2946 2.56578L10.2958 4.48431C9.51228 3.72761 8.5346 3.34926 7.36272 3.34926C6.53906 3.34926 5.77567 3.55685 5.07255 3.97203C4.37612 4.38721 3.82366 4.95306 3.41518 5.66957C3.0067 6.3794 2.80246 7.15618 2.80246 7.99993C2.80246 8.84368 3.0067 9.62381 3.41518 10.3403C3.82366 11.0502 4.37612 11.6127 5.07255 12.0278C5.77567 12.443 6.53906 12.6506 7.36272 12.6506C7.91853 12.6506 8.42746 12.5736 8.88951 12.4196C9.35826 12.2656 9.7433 12.0747 10.0446 11.847C10.346 11.6127 10.6071 11.3481 10.8281 11.0535C11.0558 10.7589 11.2199 10.481 11.3203 10.2198C11.4275 9.95864 11.5011 9.71087 11.5413 9.47649H7.36272V6.94524H14.3136C14.394 7.36712 14.4342 7.7756 14.4342 8.17069ZM23.1429 6.94524V9.05462H21.0435V11.1539H18.9342V9.05462H16.8348V6.94524H18.9342V4.84591H21.0435V6.94524H23.1429Z" fill="white"/>
</svg>
