<svg width="17" height="14" viewBox="0 0 17 14" fill="none" xmlns="http://www.w3.org/2000/svg">
<path d="M16.2718 2.09832C15.8231 2.75457 15.2807 3.31372 14.6445 3.77577C14.6512 3.86952 14.6546 4.01015 14.6546 4.19765C14.6546 5.06818 14.5273 5.93872 14.2729 6.80926C14.0184 7.6731 13.63 8.50345 13.1077 9.30033C12.5921 10.0972 11.976 10.8037 11.2595 11.4197C10.543 12.0291 9.67913 12.518 8.66797 12.8863C7.65681 13.2479 6.57534 13.4287 5.42355 13.4287C3.60882 13.4287 1.9481 12.9432 0.441406 11.9722C0.675781 11.999 0.936942 12.0124 1.22489 12.0124C2.73159 12.0124 4.07422 11.5503 5.25279 10.6262C4.54967 10.6128 3.9202 10.3985 3.3644 9.98336C2.80859 9.56149 2.4269 9.02577 2.21931 8.37622C2.44029 8.4097 2.64453 8.42644 2.83203 8.42644C3.11998 8.42644 3.40458 8.38961 3.68583 8.31595C2.93583 8.16194 2.31306 7.79028 1.81752 7.201C1.32868 6.60502 1.08426 5.91528 1.08426 5.1318V5.09162C1.53962 5.34609 2.02846 5.48336 2.55078 5.50345C2.10882 5.20881 1.75725 4.82376 1.49609 4.34832C1.23493 3.87287 1.10435 3.35725 1.10435 2.80144C1.10435 2.21216 1.25167 1.6664 1.54632 1.16417C2.35659 2.16193 3.34096 2.96216 4.49944 3.56484C5.66462 4.16082 6.91016 4.49229 8.23605 4.55926C8.18248 4.30479 8.15569 4.05702 8.15569 3.81595C8.15569 2.91863 8.47042 2.15524 9.09989 1.52577C9.73605 0.889614 10.5028 0.571533 11.4001 0.571533C12.3376 0.571533 13.1278 0.913051 13.7706 1.59609C14.5006 1.45546 15.1869 1.1943 15.8298 0.812605C15.582 1.58269 15.1066 2.17868 14.4035 2.60055C15.0262 2.53359 15.649 2.36618 16.2718 2.09832Z" fill="white"/>
</svg>
