<?xml version="1.0" encoding="utf-8"?>
<!-- Generator: Adobe Illustrator 23.0.2, SVG Export Plug-In . SVG Version: 6.00 Build 0)  -->
<svg version="1.1" id="Layer_1" xmlns="http://www.w3.org/2000/svg" xmlns:xlink="http://www.w3.org/1999/xlink" x="0px" y="0px"
	 viewBox="0 0 80 80" style="enable-background:new 0 0 80 80;" xml:space="preserve">
<style type="text/css">
	.st0{fill:#9658A2;}
	.st1{fill:#FFFFFF;}
</style>
<g>
	<path class="st0" d="M69.2,80H11C5,80,0.1,75.2,0.1,69.2V10.9C0.1,4.9,5,0,11,0h58.3c6,0,10.9,4.9,10.9,10.9v58.3
		C80.1,75.2,75.2,80,69.2,80z"/>
	<g>
		<path class="st1" d="M24,64.4h-2.3c-1.7,0-3.1-1.4-3.1-3.1V37.8c0-1.7,1.4-3.1,3.1-3.1H24c1.7,0,3.1,1.4,3.1,3.1v23.5
			C27.2,63.1,25.8,64.4,24,64.4z"/>
		<path class="st1" d="M58.5,65.2h-2.3c-1.7,0-3.1-1.4-3.1-3.1V49.6c0-1.7,1.4-3.1,3.1-3.1h2.3c1.7,0,3.1,1.4,3.1,3.1v12.5
			C61.6,63.8,60.2,65.2,58.5,65.2z"/>
		<path class="st1" d="M41.3,64.4h-2.3c-1.7,0-3.1-1.4-3.1-3.1V25.8c0-1.7,1.4-3.1,3.1-3.1h2.3c1.7,0,3.1,1.4,3.1,3.1v35.6
			C44.4,63.1,43,64.4,41.3,64.4z"/>
	</g>
</g>
</svg>
